<?xml version="1.0" encoding="utf-8"?>
<!-- Generator: Adobe Illustrator 25.0.0, SVG Export Plug-In . SVG Version: 6.00 Build 0)  -->
<svg version="1.1" id="Layer_1" xmlns="http://www.w3.org/2000/svg" xmlns:xlink="http://www.w3.org/1999/xlink" x="0px" y="0px"
	 viewBox="0 0 218 211" style="enable-background:new 0 0 218 211;" xml:space="preserve">
<style type="text/css">
	.st0{fill:#606060;}
	.st1{fill:#727272;}
	.st2{fill:#8E8E8E;}
	.st3{fill:#9B9B9B;}
</style>
<path class="st0" d="M89.4,66.2l-1.9-0.1c0.1-2.5,1.2-24.8,6.1-28.9c0.3-0.3,0.7-0.5,1.1-0.6c0.4-0.1,0.8-0.2,1.2-0.1
	c2.9,0.4,6.1,5,9.7,14.1c2.6,6.5,4.4,12.9,4.5,13l-1.8,0.5c0-0.1-1.9-6.4-4.4-12.8c-4.5-11.3-7.2-12.8-8.2-12.9
	c-0.2,0-0.3,0-0.5,0.1c-0.1,0.1-0.3,0.1-0.4,0.3C91.2,41.6,89.7,59.5,89.4,66.2z"/>
<path class="st0" d="M73,54.1l-1.9,46.6l61.2-6.6l-7.6-44.9L73,54.1z"/>
<path class="st1" d="M124.8,49.1l-4.5,0.4l6,39.4l-54.9,6.3l-0.2,5.4l61.2-6.6L124.8,49.1z"/>
<path class="st2" d="M157.8,129.2l-2.5-0.3c0-0.2,2.1-20.1-4.7-27.6c-0.8-0.9-1.8-1.6-2.9-2.1c-1.1-0.5-2.3-0.7-3.5-0.6
	c-14.9,0.4-22,26.1-22,26.3l-2.5-0.7c1.4-4.8,3.3-9.4,5.7-13.8c5.2-9.3,11.7-14.3,18.7-14.5c1.6-0.1,3.2,0.2,4.6,0.8
	c1.5,0.6,2.8,1.5,3.8,2.7C160.1,107.9,157.9,128.3,157.8,129.2z"/>
<path class="st2" d="M112.4,110.9l54,6.4l-0.8,85.7l-72.1-8.6L112.4,110.9z"/>
<path class="st1" d="M166.5,117.3l-5.4-0.6l-2.6,79.3l-64-6l-1,4.5l72.1,8.6L166.5,117.3z"/>
<path class="st0" d="M180,144.6c2.5,0.5,4.8-1.5,5.2-4.4c0.5,0.8,0.9,1.6,1.4,2.4c-0.4,2.9-2.8,4.9-5.2,4.4
	C180.9,146.1,180.5,145.4,180,144.6z"/>
<path class="st3" d="M107.3,207.6c2.5,0.5,4.8-1.5,5.2-4.4c0.5,0.8,0.9,1.6,1.4,2.4c-0.4,2.9-2.8,4.9-5.2,4.4
	C108.3,209.2,107.8,208.4,107.3,207.6z"/>
<path class="st0" d="M185.5,95.2c1,2.7,3.7,3.9,6,2.7c-0.3,0.9-0.6,1.8-0.8,2.7c-2.3,1.2-5,0-6-2.7C184.9,97,185.2,96.1,185.5,95.2z
	"/>
<path class="st0" d="M169.6,75.9c0.4-3-1.2-5.7-3.7-6.2c0.7-0.6,1.3-1.1,2-1.7c2.5,0.5,4.1,3.3,3.7,6.2
	C170.9,74.8,170.2,75.3,169.6,75.9z"/>
<path class="st0" d="M21.7,64c0.4-3-1.2-5.7-3.7-6.2c0.7-0.6,1.3-1.1,2-1.7c2.5,0.5,4.1,3.3,3.7,6.2C23,62.9,22.4,63.4,21.7,64z"/>
<path class="st0" d="M72.1,168.5c0.4-3-1.2-5.7-3.7-6.2c0.7-0.6,1.3-1.1,2-1.7c2.5,0.5,4.1,3.3,3.7,6.2
	C73.4,167.4,72.7,168,72.1,168.5z"/>
<path class="st0" d="M201.3,58c2.4,0.6,4.8-1.3,5.4-4.2c0.4,0.8,0.9,1.6,1.3,2.4c-0.5,2.9-2.9,4.8-5.4,4.2
	C202.2,59.6,201.8,58.8,201.3,58z"/>
<path class="st0" d="M5.8,94.2C4.9,91.4,2.3,90,0,91c0.3-0.9,0.7-1.7,1-2.6c2.3-1,4.9,0.4,5.8,3.2C6.5,92.5,6.2,93.3,5.8,94.2z"/>
<path class="st0" d="M66.5,128.3c0.2,3,2.3,5.2,4.8,5c-0.5,0.7-1.1,1.4-1.6,2.2c-2.5,0.2-4.7-2-4.8-5
	C65.5,129.8,66,129.1,66.5,128.3z"/>
<path class="st0" d="M48.9,74.1c2.5-0.4,4.2-3.1,3.9-6.1c0.6,0.6,1.3,1.2,1.9,1.7c0.3,3-1.4,5.7-3.9,6.1
	C50.2,75.3,49.6,74.7,48.9,74.1z"/>
<path class="st0" d="M149.8,37.8c-3.2,0.1-0.9,5.8-4.1,5.9c-0.6-0.6-1.2-1.2-1.8-1.8c3.2-0.1,0.9-5.8,4.1-5.9
	C148.6,36.5,149.2,37.2,149.8,37.8z"/>
<path class="st0" d="M155.6,186.3c-3.1-0.9-2.1,5.3-5.2,4.4c-0.5-0.8-0.9-1.6-1.4-2.4c3.1,0.9,2.1-5.3,5.2-4.4
	C154.7,184.8,155.2,185.6,155.6,186.3z"/>
<path class="st0" d="M62.8,194.4c-2.2,2.8,2.8,4.8,0.6,7.6c-0.8,0.1-1.6,0.2-2.4,0.2c2.2-2.8-2.8-4.8-0.6-7.6
	C61.2,194.6,62,194.5,62.8,194.4z"/>
<path class="st0" d="M134.2,1.4c-3.1,0.8,0,5.9-3.2,6.7c-0.7-0.5-1.4-0.9-2.1-1.4c3.1-0.8,0-5.9,3.2-6.7
	C132.8,0.5,133.5,0.9,134.2,1.4z"/>
<path class="st0" d="M33.4,18.1c1.5,3.4,4.7-1.7,6.2,1.7c-0.2,0.9-0.4,1.9-0.5,2.8c-1.5-3.4-4.7,1.7-6.2-1.7
	C33.1,19.9,33.3,19,33.4,18.1z"/>
<path class="st0" d="M6.8,150.6c0.4-0.1,0.8-0.3,1.1-0.6c0.3-0.3,0.4-0.7,0.4-1.2c0-0.4-0.1-0.8-0.4-1.2c-0.3-0.3-0.6-0.5-1.1-0.6"
	/>
<path d="M174.4,13.9c-1.3,0-2.4-1.3-2.4-2.9c0-1.6,1.1-2.9,2.4-2.9c1.4,0,2.4,1.3,2.4,2.9C176.9,12.6,175.8,13.9,174.4,13.9z
	 M174.4,9.2c-0.4,0-0.8,0.3-1.1,0.6c-0.3,0.3-0.4,0.8-0.4,1.2c0,0.2,0,0.4,0,0.7c0.1,0.2,0.2,0.4,0.3,0.6c0.1,0.2,0.3,0.3,0.5,0.4
	c0.2,0.1,0.4,0.1,0.6,0.1s0.4,0,0.6-0.1c0.2-0.1,0.4-0.2,0.5-0.4c0.1-0.2,0.2-0.4,0.3-0.6c0.1-0.2,0.1-0.4,0-0.7
	c0-0.4-0.1-0.9-0.4-1.2C175.3,9.5,174.9,9.3,174.4,9.2z"/>
<path class="st0" d="M31.9,125.1c-1.3,0-2.4-1.3-2.4-2.9c0-1.6,1.1-2.9,2.4-2.9c1.3,0,2.4,1.3,2.4,2.9
	C34.4,123.7,33.3,125.1,31.9,125.1z M31.9,120.3c-0.4,0.1-0.8,0.3-1.1,0.6c-0.3,0.3-0.4,0.7-0.4,1.2c0,0.4,0.1,0.8,0.4,1.2
	c0.3,0.3,0.6,0.5,1.1,0.6c0.4-0.1,0.8-0.3,1.1-0.6c0.3-0.3,0.4-0.7,0.4-1.2c0-0.4-0.1-0.8-0.4-1.2C32.7,120.6,32.4,120.4,31.9,120.3
	z"/>
<path class="st0" d="M216.8,154.2c-0.9-2.8-3.5-4.2-5.8-3.2c0.3-0.9,0.7-1.7,1-2.6c2.3-1,4.9,0.4,5.8,3.2
	C217.5,152.5,217.2,153.3,216.8,154.2z"/>
</svg>
